<!-- Generated by IcoMoon.io -->
<svg version="1.1" xmlns="http://www.w3.org/2000/svg" width="2048" height="2048" viewBox="0 0 2048 2048">
<title></title>
<g id="icomoon-ignore">
</g>
<path fill="#fff" d="M1024 0c-565.54 0-1024 458.46-1024 1024s458.46 1024 1024 1024 1024-458.46 1024-1024-458.46-1024-1024-1024zM1024 1920.004c-125.916 0-245.744-26.024-354.46-72.904l466.296-524.58c10.412-11.716 16.164-26.844 16.164-42.52v-192c0-35.348-28.652-64-64-64-225.98 0-464.408-234.924-466.748-237.252-12-12.004-28.28-18.748-45.252-18.748h-256c-35.344 0-64 28.656-64 64v384c0 24.244 13.696 46.404 35.38 57.244l220.62 110.312v375.772c-232.104-161.912-384-430.864-384-735.328 0-137.428 30.98-267.612 86.276-384h233.724c16.976 0 33.252-6.744 45.256-18.744l256-256c12-12.004 18.744-28.28 18.744-45.256v-154.824c81.124-24.148 167.036-37.176 256-37.176 140.812 0 274.008 32.52 392.564 90.4-8.288 7.004-16.352 14.328-24.092 22.072-72.532 72.528-112.472 168.956-112.472 271.528s39.94 199 112.472 271.528c72.868 72.864 170.436 112.528 271.268 112.52 6.332 0 12.684-0.16 19.036-0.472 27.628 103.604 77.504 373.312-16.808 744.668-0.888 3.488-1.392 6.976-1.684 10.448-162.648 166.16-389.4 269.312-640.284 269.312z"></path>
</svg>
