<!-- Generated by IcoMoon.io -->
<svg version="1.1" xmlns="http://www.w3.org/2000/svg" width="2048" height="2048" viewBox="0 0 2048 2048">
<title></title>
<g id="icomoon-ignore">
</g>
<path fill="#fff" d="M2048 1152l-256-512h-384v-256c0-70.4-57.6-128-128-128h-1152c-70.4 0-128 57.6-128 128v1024l128 128h162.332c-21.796 37.664-34.332 81.356-34.332 128 0 141.384 114.616 256 256 256s256-114.616 256-256c0-46.644-12.536-90.336-34.332-128h708.668c-21.796 37.664-34.336 81.356-34.336 128 0 141.384 114.616 256 256 256s256-114.616 256-256c0-46.644-12.54-90.336-34.336-128h162.336v-384zM1408 1152v-384h265.336l192 384h-457.336z"></path>
</svg>
